HIERARCHY
ROOT simHips
{
  OFFSET 101.471 99.41 113.622
  CHANNELS 6 Xposition Yposition Zposition Zrotation Xrotation Yrotation
  JOINT simSpine
  {
    OFFSET -0.000355721 21.3001 -0.016921
    CHANNELS 3 Zrotation Xrotation Yrotation
    JOINT simLeftArm
    {
      OFFSET 13.5181 21.3012 0
      CHANNELS 3 Zrotation Xrotation Yrotation
      JOINT simLeftForeArm
      {
        OFFSET 24.5783 0 0
        CHANNELS 3 Zrotation Xrotation Yrotation
        JOINT simLeftHand
        {
          OFFSET 24.5783 0 0
          CHANNELS 3 Zrotation Xrotation Yrotation
          End Site
          {
            OFFSET 7.32568 1.52588e-05 0.0169305
          }
        }
      }
    }
    JOINT simHead
    {
      OFFSET 0 27.4458 -0.00489235
      CHANNELS 3 Zrotation Xrotation Yrotation
      End Site
      {
        OFFSET 0 0 0
      }
    }
    JOINT simRightArm
    {
      OFFSET -13.5174 21.3012 0
      CHANNELS 3 Zrotation Xrotation Yrotation
      JOINT simRightForeArm
      {
        OFFSET -24.5783 0 0
        CHANNELS 3 Zrotation Xrotation Yrotation
        JOINT simRightHand
        {
          OFFSET -24.5783 0 0
          CHANNELS 3 Zrotation Xrotation Yrotation
          End Site
          {
            OFFSET -7.32568 1.52588e-05 0.0169305
          }
        }
      }
    }
  }
  JOINT simRightUpLeg
  {
    OFFSET -8.44614 -9.41038 0.835684
    CHANNELS 3 Zrotation Xrotation Yrotation
    JOINT simRightLeg
    {
      OFFSET 0 -40.9639 0
      CHANNELS 3 Zrotation Xrotation Yrotation
      JOINT simRightFoot
      {
        OFFSET 0 -40.9639 0
        CHANNELS 3 Zrotation Xrotation Yrotation
        End Site
        {
          OFFSET 0.50614 -9.67405 14.6709
        }
      }
    }
  }
  JOINT simLeftUpLeg
  {
    OFFSET 8.44614 -9.41038 0.835684
    CHANNELS 3 Zrotation Xrotation Yrotation
    JOINT simLeftLeg
    {
      OFFSET 0 -40.9639 0
      CHANNELS 3 Zrotation Xrotation Yrotation
      JOINT simLeftFoot
      {
        OFFSET 0 -40.9639 0
        CHANNELS 3 Zrotation Xrotation Yrotation
        End Site
        {
          OFFSET -0.50614 -9.67405 14.6709
        }
      }
    }
  }
}
MOTION
Frames:	16
Frame Time:	0.0333333
101.471 99.41 113.622 0.503483 8.55959 -0.0701584 -3.2411 -8.06454 -1.95414 -1.78051 -5.50813 -0.798478 0.117971 0.0272954 -0.416295 -7.63457 -0.251306 -1.29562 5.20197 6.18235 24.9154 3.48484 -7.60364 0.171151 -1.03883 -0.388902 3.3418 1.19001 -6.24007 0.95053 -2.04381 -7.49196 -5.93068 0.310696 0.649547 0.20123 1.37925 -0.874566 -2.52742 0.461513 -6.6194 -0.752238 -0.00710339 -0.108879 0.161443 -0.498799 -1.20125 -0.478148 
101.494 99.4308 113.562 0.509791 8.52387 -0.0181284 -3.26926 -7.931 -2.03172 -2.15686 -6.92773 -0.490598 0.541339 0.125923 -1.90896 -5.28553 -1.69521 -1.53601 5.23211 6.11003 24.8766 4.28287 -8.82829 -0.396265 -1.67087 -0.660268 5.41121 -1.38625 -8.50385 1.33467 -2.07299 -7.53257 -6.11932 0.290633 0.715904 0.191357 1.41309 -0.729649 -2.39869 0.441157 -6.78702 -0.73889 -0.0300305 0.0618725 0.161443 -0.539778 -1.14156 -0.533667 
101.509 99.4461 113.483 0.529468 8.59508 0.0921078 -3.33827 -7.8972 -2.19202 -2.70373 -9.56234 0.321496 1.49933 0.30661 -5.25935 -2.14993 -3.83495 -1.9687 5.21392 6.07596 24.8403 5.57127 -11.1055 -1.14189 -2.66518 -1.14358 8.72988 -4.70371 -13.2692 1.6358 -2.1274 -7.77549 -6.33547 0.269716 0.939618 0.181719 1.46329 -0.666349 -2.3132 0.400855 -6.90071 -0.79605 -0.0324371 -0.00774832 0.161443 -0.535758 -1.02554 -0.596063 
101.579 99.4475 113.393 0.55334 8.57246 0.129501 -3.30511 -7.75681 -2.29034 -3.88784 -13.4105 1.72516 3.21583 0.488522 -11.1991 1.67936 -6.66604 -2.02401 4.94967 6.0083 24.8043 7.2759 -13.1084 -2.21105 -4.22246 -2.05285 14.1264 -9.26114 -20.2224 1.04893 -2.2179 -7.92125 -6.48949 0.252309 1.16316 0.173488 1.55143 -0.686698 -2.20116 0.329091 -6.78458 -0.83179 -0.0458535 -0.12145 0.161443 -0.534688 -1.00668 -0.6016 
101.655 99.4524 113.293 0.568526 8.6431 0.175155 -3.28179 -7.71582 -2.42076 -5.65448 -17.8672 3.53346 5.61429 0.44414 -19.4609 5.83696 -8.37089 -2.3613 4.71745 5.95688 24.6979 9.47578 -15.0733 -3.48358 -6.20088 -3.52343 21.4655 -14.085 -26.7732 0.147115 -2.29956 -8.13922 -6.63781 0.236877 1.31108 0.166662 1.61548 -0.600527 -2.08716 0.259157 -6.79356 -0.88395 -0.0516943 -0.318527 0.161445 -0.467906 -0.902902 -0.622661 
101.752 99.4578 113.18 0.552885 8.63092 0.176746 -3.24066 -7.5699 -2.50092 -8.07422 -21.8614 5.4843 8.49584 -0.0758168 -29.5364 8.83241 -8.9335 -2.04127 4.47919 5.97294 24.461 12.0618 -16.0219 -4.90016 -8.40087 -5.70965 30.6393 -18.4979 -33.2186 -1.61468 -2.36103 -8.27429 -6.66949 0.229098 1.4541 0.163506 1.59237 -0.594362 -2.04757 0.195777 -7.20244 -0.901685 -0.0236363 0.0402997 0.161037 -0.468257 -0.879182 -0.62974 
101.869 99.4686 113.059 0.555952 8.5512 0.14907 -3.28955 -7.42733 -2.5994 -11.2081 -25.0351 7.44046 11.5094 -1.22008 -40.5863 9.95153 -8.18454 -1.78445 4.40554 6.17299 24.1348 15.2393 -16.1963 -6.29112 -10.4267 -8.54023 40.8758 -22.0558 -37.7691 -3.3576 -2.43695 -8.27696 -6.67922 0.225731 1.44916 0.168151 1.80376 -0.40584 -2.05609 0.109161 -7.19255 -0.874596 -0.0104063 0.0969292 0.149871 -0.373314 -0.85613 -0.639784 
102.013 99.4795 112.913 0.582171 8.38335 0.060214 -3.39848 -7.30034 -2.66062 -14.8519 -26.5047 9.13213 14.2105 -2.88887 -51.4016 9.53123 -6.71518 -1.4895 4.35944 6.59357 23.6117 18.9368 -15.5572 -7.44085 -11.9493 -11.7474 51.303 -23.5894 -41.1779 -4.50047 -2.5624 -8.30661 -6.70236 0.208591 1.6447 0.163719 1.95092 -0.328078 -1.95254 0.003049 -7.02078 -0.857882 -0.0256809 -1.29801e-05 0.145415 -0.354347 -0.756704 -0.590407 
102.186 99.4857 112.737 0.631139 8.14942 -0.112732 -3.57208 -7.13907 -2.70591 -18.9298 -26.0427 10.4712 16.3084 -4.76665 -60.9267 8.19448 -6.28531 -1.5169 4.2758 7.18399 22.9206 22.9049 -13.3652 -8.12982 -12.8219 -14.9208 61.0242 -24.0278 -42.7982 -5.23666 -2.71782 -8.36381 -6.61463 0.182413 1.96723 0.15204 2.04958 -0.257632 -1.87875 -0.156365 -6.91535 -0.820657 -0.0160841 1.22272e-05 0.152809 -0.252289 -0.622402 -0.477864 
102.369 99.49 112.526 0.695072 7.83535 -0.286012 -3.83264 -6.93296 -2.77695 -23.3133 -23.729 11.3633 17.7461 -6.499 -68.5044 6.52712 -6.48722 -1.70143 4.21158 7.88335 22.0283 27.3697 -9.7192 -8.12746 -13.118 -17.5563 68.9439 -22.5819 -42.2026 -3.87719 -2.89102 -8.41079 -6.61932 0.142551 2.38282 0.134695 2.22301 -0.147076 -1.7473 -0.326818 -6.48838 -0.762331 -0.0183008 -0.206203 0.149012 -0.0861066 -0.532451 -0.404965 
102.563 99.4892 112.273 0.782417 7.40209 -0.482611 -4.18205 -6.64757 -2.90359 -27.8516 -19.7482 11.8619 18.604 -7.80205 -73.7423 4.95666 -6.05116 -1.973 4.06623 8.81044 20.7994 32.0425 -4.31435 -7.59056 -13.0979 -19.4094 74.5419 -21.0927 -39.3904 -1.64272 -3.11295 -8.45996 -6.48053 0.0887299 3.0021 0.108463 2.39689 -0.104222 -1.65299 -0.530321 -6.25936 -0.72688 -0.0279558 0.0102531 0.133452 0.0897082 -0.505809 -0.26029 
102.771 99.482 111.984 0.869297 6.97729 -0.653253 -4.59205 -6.30832 -2.86393 -32.5116 -13.7048 11.5621 18.9604 -8.43062 -76.1667 4.05867 -6.20619 -1.75825 3.86756 9.70694 19.0121 36.6467 2.38198 -7.07533 -13.0077 -20.3929 77.5543 -18.8498 -34.9995 0.81152 -3.34681 -8.64578 -6.44027 0.0257543 3.81801 0.0785298 2.57334 -0.0502819 -1.51886 -0.747231 -6.12316 -0.739455 -0.0477366 0.058355 0.143683 0.176315 -0.297846 -0.11285 
102.997 99.4639 111.651 0.911034 6.54191 -0.779271 -5.02382 -5.9299 -2.82672 -36.9212 -7.2061 10.8773 18.9621 -8.4386 -76.1955 1.55626 -3.91938 -1.95977 3.81174 10.6287 17.0322 41.2833 9.24944 -6.19561 -13.0149 -20.3313 77.3608 -16.2223 -29.3928 3.63973 -3.57236 -9.07587 -6.43984 -0.0420604 5.08125 0.0480773 2.74427 -0.129614 -1.39762 -0.934513 -5.84049 -0.810522 -0.055376 0.0461035 0.131478 0.396947 -0.169402 0.0650122 
103.238 99.4395 111.234 0.951139 5.97743 -0.841892 -5.47787 -5.38995 -2.79227 -40.9426 0.00628287 9.89752 18.6844 -7.93749 -74.2687 -0.546149 -0.319809 -1.4192 3.7164 11.6079 15.0099 45.6593 16.4683 -5.3922 -13.0917 -19.4982 74.8124 -15.4292 -23.62 5.8966 -3.85303 -9.75276 -6.48612 -0.121587 7.01393 0.0126083 2.81417 -0.441881 -1.23954 -1.1191 -5.51254 -0.975645 -0.106591 0.102897 0.120977 0.556518 -0.0477558 0.292185 
103.509 99.4113 110.753 0.95956 5.49233 -0.871961 -5.95188 -4.77785 -2.67221 -44.6317 7.60735 8.80741 18.1987 -7.09153 -70.8448 -1.44838 2.82893 -1.24222 3.85919 12.404 12.8054 49.8271 22.6111 -4.59331 -13.1299 -17.973 70.1974 -14.284 -19.7688 6.80729 -4.11756 -10.5168 -6.4765 -0.195479 8.86086 -0.0153562 2.99556 -0.613849 -1.18816 -1.31762 -5.33051 -1.07731 -0.116426 0.152564 0.106866 0.743545 0.135482 0.428545 
103.785 99.3854 110.203 0.957474 5.02926 -0.798781 -6.48446 -4.04317 -2.77635 -47.6306 14.5846 6.96911 17.3212 -5.93698 -66.1361 -2.60091 7.57194 -0.71188 4.11577 13.0863 10.7252 53.8345 27.6384 -3.69166 -12.9797 -15.9266 64.0506 -14.2726 -16.7007 8.49491 -4.38562 -11.2828 -6.3428 -0.26226 10.6003 -0.0337779 3.3035 -0.626795 -1.31802 -1.51464 -5.20392 -1.16085 -0.104322 0.156164 0.0901027 0.93768 0.408771 0.445433 
